<svg xmlns="http://www.w3.org/2000/svg" xmlns:xlink="http://www.w3.org/1999/xlink" width="936" height="340pt" viewBox="0 0 701.94 340"><g id="graph0" class="graph" transform="scale(1 1) rotate(0) translate(4 336)"><title>stard</title><polygon fill="#fff" stroke="transparent" points="-4 4 -4 -336 697.945 -336 697.945 4 -4 4"/><g id="node1" class="node"><title>source</title><polygon fill="#fff" stroke="#000" stroke-width="2" points="463.661 -328 235.47 -328 235.47 -292 463.661 -292 463.661 -328"/><text x="349.565" y="-313.3" fill="#000" font-family="Arial" font-size="11" text-anchor="middle">FNA samples with histopathology reference</text><text x="349.565" y="-300.1" fill="#000" font-family="Arial" font-size="11" text-anchor="middle">(N = 569)</text></g><g id="node2" class="node"><title>split</title><text x="584.565" y="-319" fill="#000" font-family="Arial" font-size="10" text-anchor="middle">Stratified 70/30 split (seed = 42):</text><text x="584.565" y="-307" fill="#000" font-family="Arial" font-size="10" text-anchor="middle">• Training set (model fitting): n = 398</text><text x="584.565" y="-295" fill="#000" font-family="Arial" font-size="10" text-anchor="middle">• Test set (index-test evaluation): n = 171</text></g><g id="edge9" class="edge"><title>source-&gt;split</title><path fill="none" stroke="#000" stroke-dasharray="5 2" d="M463.8523,-310C469.825,-310 475.7978,-310 481.7706,-310"/></g><g id="node3" class="node"><title>test</title><polygon fill="#fff" stroke="#000" points="425.884 -252 273.246 -252 273.246 -216 425.884 -216 425.884 -252"/><text x="349.565" y="-237.3" fill="#000" font-family="Arial" font-size="11" text-anchor="middle">Test set: index tests applied</text><text x="349.565" y="-224.1" fill="#000" font-family="Arial" font-size="11" text-anchor="middle">(n = 171)</text></g><g id="edge1" class="edge"><title>source-&gt;test</title><path fill="none" stroke="#000" d="M349.5652,-291.9891C349.5652,-283.1566 349.5652,-272.3099 349.5652,-262.3965"/><polygon fill="#000" stroke="#000" points="353.065 -262.145 349.565 -252.145 346.065 -262.145 353.065 -262.145"/></g><g id="node4" class="node"><title>ref</title><polygon fill="#fff" stroke="#000" points="473.964 -180 225.167 -180 225.167 -144 473.964 -144 473.964 -180"/><text x="349.565" y="-165.3" fill="#000" font-family="Arial" font-size="11" text-anchor="middle">Histopathology reference standard applied to all</text><text x="349.565" y="-152.1" fill="#000" font-family="Arial" font-size="11" text-anchor="middle">(malignant = 64, benign = 107)</text></g><g id="edge2" class="edge"><title>test-&gt;ref</title><path fill="none" stroke="#000" d="M349.5652,-215.8314C349.5652,-208.131 349.5652,-198.9743 349.5652,-190.4166"/><polygon fill="#000" stroke="#000" points="353.065 -190.413 349.565 -180.413 346.065 -190.413 353.065 -190.413"/></g><g id="node5" class="node"><title>idx_pos</title><polygon fill="#fff" stroke="#000" points="312.593 -108 208.538 -108 208.538 -72 312.593 -72 312.593 -108"/><text x="260.565" y="-93.3" fill="#000" font-family="Arial" font-size="11" text-anchor="middle">Index test positive</text><text x="260.565" y="-80.1" fill="#000" font-family="Arial" font-size="11" text-anchor="middle">(n = 61)</text></g><g id="edge3" class="edge"><title>ref-&gt;idx_pos</title><path fill="none" stroke="#000" d="M327.1067,-143.8314C316.1447,-134.9632 302.7953,-124.1637 290.9387,-114.5718"/><polygon fill="#000" stroke="#000" points="292.992 -111.731 283.016 -108.163 288.59 -117.173 292.992 -111.731"/></g><g id="node6" class="node"><title>idx_neg</title><polygon fill="#fff" stroke="#000" points="492.882 -108 384.248 -108 384.248 -72 492.882 -72 492.882 -108"/><text x="438.565" y="-93.3" fill="#000" font-family="Arial" font-size="11" text-anchor="middle">Index test negative</text><text x="438.565" y="-80.1" fill="#000" font-family="Arial" font-size="11" text-anchor="middle">(n = 110)</text></g><g id="edge4" class="edge"><title>ref-&gt;idx_neg</title><path fill="none" stroke="#000" d="M372.0236,-143.8314C382.9856,-134.9632 396.335,-124.1637 408.1916,-114.5718"/><polygon fill="#000" stroke="#000" points="410.541 -117.173 416.114 -108.163 406.138 -111.731 410.541 -117.173"/></g><g id="node7" class="node"><title>tp</title><polygon fill="#fff" stroke="#000" points="165.196 -36 -.065 -36 -.065 0 165.196 0 165.196 -36"/><text x="82.565" y="-21.3" fill="#000" font-family="Arial" font-size="11" text-anchor="middle">Reference positive (malignant)</text><text x="82.565" y="-8.1" fill="#000" font-family="Arial" font-size="11" text-anchor="middle">TP = 60</text></g><g id="edge5" class="edge"><title>idx_pos-&gt;tp</title><path fill="none" stroke="#000" d="M215.6482,-71.8314C191.6302,-62.1162 161.8817,-50.0831 136.606,-39.8592"/><polygon fill="#000" stroke="#000" points="137.742 -36.543 127.159 -36.038 135.117 -43.032 137.742 -36.543"/></g><g id="node8" class="node"><title>fp</title><polygon fill="#fff" stroke="#000" points="337.825 -36 183.305 -36 183.305 0 337.825 0 337.825 -36"/><text x="260.565" y="-21.3" fill="#000" font-family="Arial" font-size="11" text-anchor="middle">Reference negative (benign)</text><text x="260.565" y="-8.1" fill="#000" font-family="Arial" font-size="11" text-anchor="middle">FP = 1</text></g><g id="edge6" class="edge"><title>idx_pos-&gt;fp</title><path fill="none" stroke="#000" d="M260.5652,-71.8314C260.5652,-64.131 260.5652,-54.9743 260.5652,-46.4166"/><polygon fill="#000" stroke="#000" points="264.065 -46.413 260.565 -36.413 257.065 -46.413 264.065 -46.413"/></g><g id="node9" class="node"><title>fn</title><polygon fill="#fff" stroke="#000" points="521.196 -36 355.935 -36 355.935 0 521.196 0 521.196 -36"/><text x="438.565" y="-21.3" fill="#000" font-family="Arial" font-size="11" text-anchor="middle">Reference positive (malignant)</text><text x="438.565" y="-8.1" fill="#000" font-family="Arial" font-size="11" text-anchor="middle">FN = 4</text></g><g id="edge7" class="edge"><title>idx_neg-&gt;fn</title><path fill="none" stroke="#000" d="M438.5652,-71.8314C438.5652,-64.131 438.5652,-54.9743 438.5652,-46.4166"/><polygon fill="#000" stroke="#000" points="442.065 -46.413 438.565 -36.413 435.065 -46.413 442.065 -46.413"/></g><g id="node10" class="node"><title>tn</title><polygon fill="#fff" stroke="#000" points="693.825 -36 539.306 -36 539.306 0 693.825 0 693.825 -36"/><text x="616.565" y="-21.3" fill="#000" font-family="Arial" font-size="11" text-anchor="middle">Reference negative (benign)</text><text x="616.565" y="-8.1" fill="#000" font-family="Arial" font-size="11" text-anchor="middle">TN = 106</text></g><g id="edge8" class="edge"><title>idx_neg-&gt;tn</title><path fill="none" stroke="#000" d="M483.4821,-71.8314C507.5001,-62.1162 537.2486,-50.0831 562.5243,-39.8592"/><polygon fill="#000" stroke="#000" points="564.013 -43.032 571.971 -36.038 561.388 -36.543 564.013 -43.032"/></g></g></svg>