<?xml version="1.0" encoding="UTF-8" standalone="no"?>
<!DOCTYPE svg PUBLIC "-//W3C//DTD SVG 1.1//EN"
 "http://www.w3.org/Graphics/SVG/1.1/DTD/svg11.dtd">
<!-- Generated by graphviz version 2.40.1 (20161225.0304)
 -->
<!-- Title: stard Pages: 1 -->
<svg width="702pt" height="340pt"
 viewBox="0.00 0.00 701.94 340.00" xmlns="http://www.w3.org/2000/svg" xmlns:xlink="http://www.w3.org/1999/xlink">
<g id="graph0" class="graph" transform="scale(1 1) rotate(0) translate(4 336)">
<title>stard</title>
<polygon fill="#ffffff" stroke="transparent" points="-4,4 -4,-336 697.9449,-336 697.9449,4 -4,4"/>
<!-- source -->
<g id="node1" class="node">
<title>source</title>
<polygon fill="#ffffff" stroke="#000000" stroke-width="2" points="463.6606,-328 235.4697,-328 235.4697,-292 463.6606,-292 463.6606,-328"/>
<text text-anchor="middle" x="349.5652" y="-313.3" font-family="Arial" font-size="11.00" fill="#000000">FNA samples with histopathology reference</text>
<text text-anchor="middle" x="349.5652" y="-300.1" font-family="Arial" font-size="11.00" fill="#000000">(N = 569)</text>
</g>
<!-- split -->
<g id="node2" class="node">
<title>split</title>
<text text-anchor="middle" x="584.5652" y="-319" font-family="Arial" font-size="10.00" fill="#000000">Stratified 70/30 split (seed = 42):</text>
<text text-anchor="middle" x="584.5652" y="-307" font-family="Arial" font-size="10.00" fill="#000000">• Training set (model fitting): n = 398</text>
<text text-anchor="middle" x="584.5652" y="-295" font-family="Arial" font-size="10.00" fill="#000000">• Test set (index&#45;test evaluation): n = 171</text>
</g>
<!-- source&#45;&gt;split -->
<g id="edge9" class="edge">
<title>source&#45;&gt;split</title>
<path fill="none" stroke="#000000" stroke-dasharray="5,2" d="M463.8523,-310C469.825,-310 475.7978,-310 481.7706,-310"/>
</g>
<!-- test -->
<g id="node3" class="node">
<title>test</title>
<polygon fill="#ffffff" stroke="#000000" points="425.8841,-252 273.2462,-252 273.2462,-216 425.8841,-216 425.8841,-252"/>
<text text-anchor="middle" x="349.5652" y="-237.3" font-family="Arial" font-size="11.00" fill="#000000">Test set: index tests applied</text>
<text text-anchor="middle" x="349.5652" y="-224.1" font-family="Arial" font-size="11.00" fill="#000000">(n = 171)</text>
</g>
<!-- source&#45;&gt;test -->
<g id="edge1" class="edge">
<title>source&#45;&gt;test</title>
<path fill="none" stroke="#000000" d="M349.5652,-291.9891C349.5652,-283.1566 349.5652,-272.3099 349.5652,-262.3965"/>
<polygon fill="#000000" stroke="#000000" points="353.0652,-262.145 349.5652,-252.145 346.0652,-262.1451 353.0652,-262.145"/>
</g>
<!-- ref -->
<g id="node4" class="node">
<title>ref</title>
<polygon fill="#ffffff" stroke="#000000" points="473.9638,-180 225.1665,-180 225.1665,-144 473.9638,-144 473.9638,-180"/>
<text text-anchor="middle" x="349.5652" y="-165.3" font-family="Arial" font-size="11.00" fill="#000000">Histopathology reference standard applied to all</text>
<text text-anchor="middle" x="349.5652" y="-152.1" font-family="Arial" font-size="11.00" fill="#000000">(malignant = 64, benign = 107)</text>
</g>
<!-- test&#45;&gt;ref -->
<g id="edge2" class="edge">
<title>test&#45;&gt;ref</title>
<path fill="none" stroke="#000000" d="M349.5652,-215.8314C349.5652,-208.131 349.5652,-198.9743 349.5652,-190.4166"/>
<polygon fill="#000000" stroke="#000000" points="353.0652,-190.4132 349.5652,-180.4133 346.0652,-190.4133 353.0652,-190.4132"/>
</g>
<!-- idx_pos -->
<g id="node5" class="node">
<title>idx_pos</title>
<polygon fill="#ffffff" stroke="#000000" points="312.5927,-108 208.5376,-108 208.5376,-72 312.5927,-72 312.5927,-108"/>
<text text-anchor="middle" x="260.5652" y="-93.3" font-family="Arial" font-size="11.00" fill="#000000">Index test positive</text>
<text text-anchor="middle" x="260.5652" y="-80.1" font-family="Arial" font-size="11.00" fill="#000000">(n = 61)</text>
</g>
<!-- ref&#45;&gt;idx_pos -->
<g id="edge3" class="edge">
<title>ref&#45;&gt;idx_pos</title>
<path fill="none" stroke="#000000" d="M327.1067,-143.8314C316.1447,-134.9632 302.7953,-124.1637 290.9387,-114.5718"/>
<polygon fill="#000000" stroke="#000000" points="292.9923,-111.7313 283.0164,-108.1628 288.5896,-117.1734 292.9923,-111.7313"/>
</g>
<!-- idx_neg -->
<g id="node6" class="node">
<title>idx_neg</title>
<polygon fill="#ffffff" stroke="#000000" points="492.882,-108 384.2483,-108 384.2483,-72 492.882,-72 492.882,-108"/>
<text text-anchor="middle" x="438.5652" y="-93.3" font-family="Arial" font-size="11.00" fill="#000000">Index test negative</text>
<text text-anchor="middle" x="438.5652" y="-80.1" font-family="Arial" font-size="11.00" fill="#000000">(n = 110)</text>
</g>
<!-- ref&#45;&gt;idx_neg -->
<g id="edge4" class="edge">
<title>ref&#45;&gt;idx_neg</title>
<path fill="none" stroke="#000000" d="M372.0236,-143.8314C382.9856,-134.9632 396.335,-124.1637 408.1916,-114.5718"/>
<polygon fill="#000000" stroke="#000000" points="410.5407,-117.1734 416.1139,-108.1628 406.138,-111.7313 410.5407,-117.1734"/>
</g>
<!-- tp -->
<g id="node7" class="node">
<title>tp</title>
<polygon fill="#ffffff" stroke="#000000" points="165.1955,-36 -.0652,-36 -.0652,0 165.1955,0 165.1955,-36"/>
<text text-anchor="middle" x="82.5652" y="-21.3" font-family="Arial" font-size="11.00" fill="#000000">Reference positive (malignant)</text>
<text text-anchor="middle" x="82.5652" y="-8.1" font-family="Arial" font-size="11.00" fill="#000000">TP = 60</text>
</g>
<!-- idx_pos&#45;&gt;tp -->
<g id="edge5" class="edge">
<title>idx_pos&#45;&gt;tp</title>
<path fill="none" stroke="#000000" d="M215.6482,-71.8314C191.6302,-62.1162 161.8817,-50.0831 136.606,-39.8592"/>
<polygon fill="#000000" stroke="#000000" points="137.7419,-36.5432 127.1591,-36.038 135.117,-43.0325 137.7419,-36.5432"/>
</g>
<!-- fp -->
<g id="node8" class="node">
<title>fp</title>
<polygon fill="#ffffff" stroke="#000000" points="337.8248,-36 183.3055,-36 183.3055,0 337.8248,0 337.8248,-36"/>
<text text-anchor="middle" x="260.5652" y="-21.3" font-family="Arial" font-size="11.00" fill="#000000">Reference negative (benign)</text>
<text text-anchor="middle" x="260.5652" y="-8.1" font-family="Arial" font-size="11.00" fill="#000000">FP = 1</text>
</g>
<!-- idx_pos&#45;&gt;fp -->
<g id="edge6" class="edge">
<title>idx_pos&#45;&gt;fp</title>
<path fill="none" stroke="#000000" d="M260.5652,-71.8314C260.5652,-64.131 260.5652,-54.9743 260.5652,-46.4166"/>
<polygon fill="#000000" stroke="#000000" points="264.0652,-46.4132 260.5652,-36.4133 257.0652,-46.4133 264.0652,-46.4132"/>
</g>
<!-- fn -->
<g id="node9" class="node">
<title>fn</title>
<polygon fill="#ffffff" stroke="#000000" points="521.1955,-36 355.9348,-36 355.9348,0 521.1955,0 521.1955,-36"/>
<text text-anchor="middle" x="438.5652" y="-21.3" font-family="Arial" font-size="11.00" fill="#000000">Reference positive (malignant)</text>
<text text-anchor="middle" x="438.5652" y="-8.1" font-family="Arial" font-size="11.00" fill="#000000">FN = 4</text>
</g>
<!-- idx_neg&#45;&gt;fn -->
<g id="edge7" class="edge">
<title>idx_neg&#45;&gt;fn</title>
<path fill="none" stroke="#000000" d="M438.5652,-71.8314C438.5652,-64.131 438.5652,-54.9743 438.5652,-46.4166"/>
<polygon fill="#000000" stroke="#000000" points="442.0652,-46.4132 438.5652,-36.4133 435.0652,-46.4133 442.0652,-46.4132"/>
</g>
<!-- tn -->
<g id="node10" class="node">
<title>tn</title>
<polygon fill="#ffffff" stroke="#000000" points="693.8248,-36 539.3055,-36 539.3055,0 693.8248,0 693.8248,-36"/>
<text text-anchor="middle" x="616.5652" y="-21.3" font-family="Arial" font-size="11.00" fill="#000000">Reference negative (benign)</text>
<text text-anchor="middle" x="616.5652" y="-8.1" font-family="Arial" font-size="11.00" fill="#000000">TN = 106</text>
</g>
<!-- idx_neg&#45;&gt;tn -->
<g id="edge8" class="edge">
<title>idx_neg&#45;&gt;tn</title>
<path fill="none" stroke="#000000" d="M483.4821,-71.8314C507.5001,-62.1162 537.2486,-50.0831 562.5243,-39.8592"/>
<polygon fill="#000000" stroke="#000000" points="564.0133,-43.0325 571.9712,-36.038 561.3884,-36.5432 564.0133,-43.0325"/>
</g>
</g>
</svg>

