<svg xmlns="http://www.w3.org/2000/svg" xmlns:xlink="http://www.w3.org/1999/xlink" width="385pt" height="427pt" viewBox="0 0 385.06 427.2"><g id="graph0" class="graph" transform="scale(1 1) rotate(0) translate(4 423.2)"><title>strobe</title><polygon fill="#fff" stroke="transparent" points="-4 4 -4 -423.2 381.055 -423.2 381.055 4 -4 4"/><g id="node1" class="node"><title>source</title><path fill="none" stroke="#000" d="M198.0207,-419.2C198.0207,-419.2 45.5057,-419.2 45.5057,-419.2 39.5057,-419.2 33.5057,-413.2 33.5057,-407.2 33.5057,-407.2 33.5057,-395.2 33.5057,-395.2 33.5057,-389.2 39.5057,-383.2 45.5057,-383.2 45.5057,-383.2 198.0207,-383.2 198.0207,-383.2 204.0207,-383.2 210.0207,-389.2 210.0207,-395.2 210.0207,-395.2 210.0207,-407.2 210.0207,-407.2 210.0207,-413.2 204.0207,-419.2 198.0207,-419.2"/><text x="121.763" y="-404.5" fill="#000" font-family="Helvetica,sans-Serif" font-size="11" text-anchor="middle">NHANES 2017-2018 participants</text><text x="121.763" y="-391.3" fill="#000" font-family="Helvetica,sans-Serif" font-size="11" text-anchor="middle">(DEMO_J, N = 9,254)</text></g><g id="node2" class="node"><title>adults</title><path fill="none" stroke="#000" d="M177.4814,-347.2C177.4814,-347.2 66.045,-347.2 66.045,-347.2 60.045,-347.2 54.045,-341.2 54.045,-335.2 54.045,-335.2 54.045,-323.2 54.045,-323.2 54.045,-317.2 60.045,-311.2 66.045,-311.2 66.045,-311.2 177.4814,-311.2 177.4814,-311.2 183.4814,-311.2 189.4814,-317.2 189.4814,-323.2 189.4814,-323.2 189.4814,-335.2 189.4814,-335.2 189.4814,-341.2 183.4814,-347.2 177.4814,-347.2"/><text x="121.763" y="-332.5" fill="#000" font-family="Helvetica,sans-Serif" font-size="11" text-anchor="middle">Adults aged &gt;= 20 years</text><text x="121.763" y="-319.3" fill="#000" font-family="Helvetica,sans-Serif" font-size="11" text-anchor="middle">N = 5,569</text></g><g id="edge1" class="edge"><title>source-&gt;adults</title><path fill="none" stroke="#000" d="M121.7632,-383.0314C121.7632,-375.331 121.7632,-366.1743 121.7632,-357.6166"/><polygon fill="#000" stroke="#000" points="125.263 -357.613 121.763 -347.613 118.263 -357.613 125.263 -357.613"/></g><g id="node3" class="node"><title>excl1</title><text x="262.763" y="-332.2" fill="#000" font-family="Helvetica,sans-Serif" font-size="10" text-anchor="middle">Excluded (n = 3,685):</text><text x="262.763" y="-320.2" fill="#000" font-family="Helvetica,sans-Serif" font-size="10" text-anchor="middle">- Age &lt; 20 years</text></g><g id="edge7" class="edge"><title>adults-&gt;excl1</title><path fill="none" stroke="#000" stroke-dasharray="5 2" d="M189.5093,-329.2C195.3276,-329.2 201.146,-329.2 206.9643,-329.2"/></g><g id="node4" class="node"><title>bmi</title><path fill="none" stroke="#000" d="M165.8264,-275.2C165.8264,-275.2 77.7,-275.2 77.7,-275.2 71.7,-275.2 65.7,-269.2 65.7,-263.2 65.7,-263.2 65.7,-251.2 65.7,-251.2 65.7,-245.2 71.7,-239.2 77.7,-239.2 77.7,-239.2 165.8264,-239.2 165.8264,-239.2 171.8264,-239.2 177.8264,-245.2 177.8264,-251.2 177.8264,-251.2 177.8264,-263.2 177.8264,-263.2 177.8264,-269.2 171.8264,-275.2 165.8264,-275.2"/><text x="121.763" y="-260.5" fill="#000" font-family="Helvetica,sans-Serif" font-size="11" text-anchor="middle">With measured BMI</text><text x="121.763" y="-247.3" fill="#000" font-family="Helvetica,sans-Serif" font-size="11" text-anchor="middle">N = 5,175</text></g><g id="edge2" class="edge"><title>adults-&gt;bmi</title><path fill="none" stroke="#000" d="M121.7632,-311.0314C121.7632,-303.331 121.7632,-294.1743 121.7632,-285.6166"/><polygon fill="#000" stroke="#000" points="125.263 -285.613 121.763 -275.613 118.263 -285.613 125.263 -285.613"/></g><g id="node5" class="node"><title>excl2</title><text x="258.763" y="-260.2" fill="#000" font-family="Helvetica,sans-Serif" font-size="10" text-anchor="middle">Excluded (n = 394):</text><text x="258.763" y="-248.2" fill="#000" font-family="Helvetica,sans-Serif" font-size="10" text-anchor="middle">- Missing BMI (BMXBMI)</text></g><g id="edge8" class="edge"><title>bmi-&gt;excl2</title><path fill="none" stroke="#000" stroke-dasharray="5 2" d="M177.9546,-257.2C183.9521,-257.2 189.9496,-257.2 195.9471,-257.2"/></g><g id="node6" class="node"><title>dmstatus</title><path fill="none" stroke="#000" d="M201.0273,-203.0017C201.0273,-203.0017 42.4991,-203.0017 42.4991,-203.0017 36.4991,-203.0017 30.4991,-197.0017 30.4991,-191.0017 30.4991,-191.0017 30.4991,-167.7983 30.4991,-167.7983 30.4991,-161.7983 36.4991,-155.7983 42.4991,-155.7983 42.4991,-155.7983 201.0273,-155.7983 201.0273,-155.7983 207.0273,-155.7983 213.0273,-161.7983 213.0273,-167.7983 213.0273,-167.7983 213.0273,-191.0017 213.0273,-191.0017 213.0273,-197.0017 207.0273,-203.0017 201.0273,-203.0017"/><text x="121.763" y="-189.3" fill="#000" font-family="Helvetica,sans-Serif" font-size="11" text-anchor="middle">Valid self-reported diabetes status</text><text x="121.763" y="-176.1" fill="#000" font-family="Helvetica,sans-Serif" font-size="11" text-anchor="middle">(DIQ010 = Yes/No)</text><text x="121.763" y="-162.9" fill="#000" font-family="Helvetica,sans-Serif" font-size="11" text-anchor="middle">N = 5,010</text></g><g id="edge3" class="edge"><title>bmi-&gt;dmstatus</title><path fill="none" stroke="#000" d="M121.7632,-239.1556C121.7632,-231.4768 121.7632,-222.2588 121.7632,-213.3872"/><polygon fill="#000" stroke="#000" points="125.263 -213.245 121.763 -203.245 118.263 -213.245 125.263 -213.245"/></g><g id="node7" class="node"><title>excl3</title><text x="303.763" y="-188.4" fill="#000" font-family="Helvetica,sans-Serif" font-size="10" text-anchor="middle">Excluded (n = 165):</text><text x="303.763" y="-176.4" fill="#000" font-family="Helvetica,sans-Serif" font-size="10" text-anchor="middle">- Borderline/refused/unknown</text><text x="303.763" y="-164.4" fill="#000" font-family="Helvetica,sans-Serif" font-size="10" text-anchor="middle">diabetes status</text></g><g id="edge9" class="edge"><title>dmstatus-&gt;excl3</title><path fill="none" stroke="#000" stroke-dasharray="5 2" d="M213.1187,-179.4C218.902,-179.4 224.6853,-179.4 230.4686,-179.4"/></g><g id="node8" class="node"><title>analytic</title><path fill="none" stroke="#000" stroke-width="2" d="M186.1549,-119.4017C186.1549,-119.4017 57.3715,-119.4017 57.3715,-119.4017 51.3715,-119.4017 45.3715,-113.4017 45.3715,-107.4017 45.3715,-107.4017 45.3715,-84.1983 45.3715,-84.1983 45.3715,-78.1983 51.3715,-72.1983 57.3715,-72.1983 57.3715,-72.1983 186.1549,-72.1983 186.1549,-72.1983 192.1549,-72.1983 198.1549,-78.1983 198.1549,-84.1983 198.1549,-84.1983 198.1549,-107.4017 198.1549,-107.4017 198.1549,-113.4017 192.1549,-119.4017 186.1549,-119.4017"/><text x="121.763" y="-105.7" fill="#000" font-family="Helvetica,sans-Serif" font-size="11" text-anchor="middle">Analytic sample</text><text x="121.763" y="-92.5" fill="#000" font-family="Helvetica,sans-Serif" font-size="11" text-anchor="middle">(positive MEC exam weight)</text><text x="121.763" y="-79.3" fill="#000" font-family="Helvetica,sans-Serif" font-size="11" text-anchor="middle">N = 5,010</text></g><g id="edge4" class="edge"><title>dmstatus-&gt;analytic</title><path fill="none" stroke="#000" d="M121.7632,-155.6672C121.7632,-147.6365 121.7632,-138.5041 121.7632,-129.8338"/><polygon fill="#000" stroke="#000" points="125.263 -129.592 121.763 -119.592 118.263 -129.592 125.263 -129.592"/></g><g id="node9" class="node"><title>obese</title><path fill="none" stroke="#000" d="M97.2906,-36C97.2906,-36 12.2358,-36 12.2358,-36 6.2358,-36 .2358,-30 .2358,-24 .2358,-24 .2358,-12 .2358,-12 .2358,-6 6.2358,0 12.2358,0 12.2358,0 97.2906,0 97.2906,0 103.2906,0 109.2906,-6 109.2906,-12 109.2906,-12 109.2906,-24 109.2906,-24 109.2906,-30 103.2906,-36 97.2906,-36"/><text x="54.763" y="-21.3" fill="#000" font-family="Helvetica,sans-Serif" font-size="11" text-anchor="middle">Obese (BMI &gt;= 30)</text><text x="54.763" y="-8.1" fill="#000" font-family="Helvetica,sans-Serif" font-size="11" text-anchor="middle">n = 2,090</text></g><g id="edge5" class="edge"><title>analytic-&gt;obese</title><path fill="none" stroke="#000" d="M101.2969,-72.0347C93.6772,-63.1867 84.9917,-53.1012 77.2042,-44.0584"/><polygon fill="#000" stroke="#000" points="79.819 -41.731 70.641 -36.438 74.515 -46.299 79.819 -41.731"/></g><g id="node10" class="node"><title>nonobese</title><path fill="none" stroke="#000" d="M240.2583,-36C240.2583,-36 139.2681,-36 139.2681,-36 133.2681,-36 127.2681,-30 127.2681,-24 127.2681,-24 127.2681,-12 127.2681,-12 127.2681,-6 133.2681,0 139.2681,0 139.2681,0 240.2583,0 240.2583,0 246.2583,0 252.2583,-6 252.2583,-12 252.2583,-12 252.2583,-24 252.2583,-24 252.2583,-30 246.2583,-36 240.2583,-36"/><text x="189.763" y="-21.3" fill="#000" font-family="Helvetica,sans-Serif" font-size="11" text-anchor="middle">Non-obese (BMI &lt; 30)</text><text x="189.763" y="-8.1" fill="#000" font-family="Helvetica,sans-Serif" font-size="11" text-anchor="middle">n = 2,920</text></g><g id="edge6" class="edge"><title>analytic-&gt;nonobese</title><path fill="none" stroke="#000" d="M142.5349,-72.0347C150.2684,-63.1867 159.0835,-53.1012 166.9872,-44.0584"/><polygon fill="#000" stroke="#000" points="169.702 -46.27 173.648 -36.438 164.432 -41.664 169.702 -46.27"/></g></g></svg>