<?xml version="1.0" encoding="UTF-8" standalone="no"?>
<!DOCTYPE svg PUBLIC "-//W3C//DTD SVG 1.1//EN"
 "http://www.w3.org/Graphics/SVG/1.1/DTD/svg11.dtd">
<!-- Generated by graphviz version 2.40.1 (20161225.0304)
 -->
<!-- Title: strobe Pages: 1 -->
<svg width="385pt" height="427pt"
 viewBox="0.00 0.00 385.06 427.20" xmlns="http://www.w3.org/2000/svg" xmlns:xlink="http://www.w3.org/1999/xlink">
<g id="graph0" class="graph" transform="scale(1 1) rotate(0) translate(4 423.2)">
<title>strobe</title>
<polygon fill="#ffffff" stroke="transparent" points="-4,4 -4,-423.2 381.0552,-423.2 381.0552,4 -4,4"/>
<!-- source -->
<g id="node1" class="node">
<title>source</title>
<path fill="none" stroke="#000000" d="M198.0207,-419.2C198.0207,-419.2 45.5057,-419.2 45.5057,-419.2 39.5057,-419.2 33.5057,-413.2 33.5057,-407.2 33.5057,-407.2 33.5057,-395.2 33.5057,-395.2 33.5057,-389.2 39.5057,-383.2 45.5057,-383.2 45.5057,-383.2 198.0207,-383.2 198.0207,-383.2 204.0207,-383.2 210.0207,-389.2 210.0207,-395.2 210.0207,-395.2 210.0207,-407.2 210.0207,-407.2 210.0207,-413.2 204.0207,-419.2 198.0207,-419.2"/>
<text text-anchor="middle" x="121.7632" y="-404.5" font-family="Helvetica,sans-Serif" font-size="11.00" fill="#000000">NHANES 2017&#45;2018 participants</text>
<text text-anchor="middle" x="121.7632" y="-391.3" font-family="Helvetica,sans-Serif" font-size="11.00" fill="#000000">(DEMO_J, N = 9,254)</text>
</g>
<!-- adults -->
<g id="node2" class="node">
<title>adults</title>
<path fill="none" stroke="#000000" d="M177.4814,-347.2C177.4814,-347.2 66.045,-347.2 66.045,-347.2 60.045,-347.2 54.045,-341.2 54.045,-335.2 54.045,-335.2 54.045,-323.2 54.045,-323.2 54.045,-317.2 60.045,-311.2 66.045,-311.2 66.045,-311.2 177.4814,-311.2 177.4814,-311.2 183.4814,-311.2 189.4814,-317.2 189.4814,-323.2 189.4814,-323.2 189.4814,-335.2 189.4814,-335.2 189.4814,-341.2 183.4814,-347.2 177.4814,-347.2"/>
<text text-anchor="middle" x="121.7632" y="-332.5" font-family="Helvetica,sans-Serif" font-size="11.00" fill="#000000">Adults aged &gt;= 20 years</text>
<text text-anchor="middle" x="121.7632" y="-319.3" font-family="Helvetica,sans-Serif" font-size="11.00" fill="#000000">N = 5,569</text>
</g>
<!-- source&#45;&gt;adults -->
<g id="edge1" class="edge">
<title>source&#45;&gt;adults</title>
<path fill="none" stroke="#000000" d="M121.7632,-383.0314C121.7632,-375.331 121.7632,-366.1743 121.7632,-357.6166"/>
<polygon fill="#000000" stroke="#000000" points="125.2633,-357.6132 121.7632,-347.6133 118.2633,-357.6133 125.2633,-357.6132"/>
</g>
<!-- excl1 -->
<g id="node3" class="node">
<title>excl1</title>
<text text-anchor="middle" x="262.7632" y="-332.2" font-family="Helvetica,sans-Serif" font-size="10.00" fill="#000000">Excluded (n = 3,685):</text>
<text text-anchor="middle" x="262.7632" y="-320.2" font-family="Helvetica,sans-Serif" font-size="10.00" fill="#000000">&#45; Age &lt; 20 years</text>
</g>
<!-- adults&#45;&gt;excl1 -->
<g id="edge7" class="edge">
<title>adults&#45;&gt;excl1</title>
<path fill="none" stroke="#000000" stroke-dasharray="5,2" d="M189.5093,-329.2C195.3276,-329.2 201.146,-329.2 206.9643,-329.2"/>
</g>
<!-- bmi -->
<g id="node4" class="node">
<title>bmi</title>
<path fill="none" stroke="#000000" d="M165.8264,-275.2C165.8264,-275.2 77.7,-275.2 77.7,-275.2 71.7,-275.2 65.7,-269.2 65.7,-263.2 65.7,-263.2 65.7,-251.2 65.7,-251.2 65.7,-245.2 71.7,-239.2 77.7,-239.2 77.7,-239.2 165.8264,-239.2 165.8264,-239.2 171.8264,-239.2 177.8264,-245.2 177.8264,-251.2 177.8264,-251.2 177.8264,-263.2 177.8264,-263.2 177.8264,-269.2 171.8264,-275.2 165.8264,-275.2"/>
<text text-anchor="middle" x="121.7632" y="-260.5" font-family="Helvetica,sans-Serif" font-size="11.00" fill="#000000">With measured BMI</text>
<text text-anchor="middle" x="121.7632" y="-247.3" font-family="Helvetica,sans-Serif" font-size="11.00" fill="#000000">N = 5,175</text>
</g>
<!-- adults&#45;&gt;bmi -->
<g id="edge2" class="edge">
<title>adults&#45;&gt;bmi</title>
<path fill="none" stroke="#000000" d="M121.7632,-311.0314C121.7632,-303.331 121.7632,-294.1743 121.7632,-285.6166"/>
<polygon fill="#000000" stroke="#000000" points="125.2633,-285.6132 121.7632,-275.6133 118.2633,-285.6133 125.2633,-285.6132"/>
</g>
<!-- excl2 -->
<g id="node5" class="node">
<title>excl2</title>
<text text-anchor="middle" x="258.7632" y="-260.2" font-family="Helvetica,sans-Serif" font-size="10.00" fill="#000000">Excluded (n = 394):</text>
<text text-anchor="middle" x="258.7632" y="-248.2" font-family="Helvetica,sans-Serif" font-size="10.00" fill="#000000">&#45; Missing BMI (BMXBMI)</text>
</g>
<!-- bmi&#45;&gt;excl2 -->
<g id="edge8" class="edge">
<title>bmi&#45;&gt;excl2</title>
<path fill="none" stroke="#000000" stroke-dasharray="5,2" d="M177.9546,-257.2C183.9521,-257.2 189.9496,-257.2 195.9471,-257.2"/>
</g>
<!-- dmstatus -->
<g id="node6" class="node">
<title>dmstatus</title>
<path fill="none" stroke="#000000" d="M201.0273,-203.0017C201.0273,-203.0017 42.4991,-203.0017 42.4991,-203.0017 36.4991,-203.0017 30.4991,-197.0017 30.4991,-191.0017 30.4991,-191.0017 30.4991,-167.7983 30.4991,-167.7983 30.4991,-161.7983 36.4991,-155.7983 42.4991,-155.7983 42.4991,-155.7983 201.0273,-155.7983 201.0273,-155.7983 207.0273,-155.7983 213.0273,-161.7983 213.0273,-167.7983 213.0273,-167.7983 213.0273,-191.0017 213.0273,-191.0017 213.0273,-197.0017 207.0273,-203.0017 201.0273,-203.0017"/>
<text text-anchor="middle" x="121.7632" y="-189.3" font-family="Helvetica,sans-Serif" font-size="11.00" fill="#000000">Valid self&#45;reported diabetes status</text>
<text text-anchor="middle" x="121.7632" y="-176.1" font-family="Helvetica,sans-Serif" font-size="11.00" fill="#000000">(DIQ010 = Yes/No)</text>
<text text-anchor="middle" x="121.7632" y="-162.9" font-family="Helvetica,sans-Serif" font-size="11.00" fill="#000000">N = 5,010</text>
</g>
<!-- bmi&#45;&gt;dmstatus -->
<g id="edge3" class="edge">
<title>bmi&#45;&gt;dmstatus</title>
<path fill="none" stroke="#000000" d="M121.7632,-239.1556C121.7632,-231.4768 121.7632,-222.2588 121.7632,-213.3872"/>
<polygon fill="#000000" stroke="#000000" points="125.2633,-213.2447 121.7632,-203.2448 118.2633,-213.2448 125.2633,-213.2447"/>
</g>
<!-- excl3 -->
<g id="node7" class="node">
<title>excl3</title>
<text text-anchor="middle" x="303.7632" y="-188.4" font-family="Helvetica,sans-Serif" font-size="10.00" fill="#000000">Excluded (n = 165):</text>
<text text-anchor="middle" x="303.7632" y="-176.4" font-family="Helvetica,sans-Serif" font-size="10.00" fill="#000000">&#45; Borderline/refused/unknown</text>
<text text-anchor="middle" x="303.7632" y="-164.4" font-family="Helvetica,sans-Serif" font-size="10.00" fill="#000000"> &#160;diabetes status</text>
</g>
<!-- dmstatus&#45;&gt;excl3 -->
<g id="edge9" class="edge">
<title>dmstatus&#45;&gt;excl3</title>
<path fill="none" stroke="#000000" stroke-dasharray="5,2" d="M213.1187,-179.4C218.902,-179.4 224.6853,-179.4 230.4686,-179.4"/>
</g>
<!-- analytic -->
<g id="node8" class="node">
<title>analytic</title>
<path fill="none" stroke="#000000" stroke-width="2" d="M186.1549,-119.4017C186.1549,-119.4017 57.3715,-119.4017 57.3715,-119.4017 51.3715,-119.4017 45.3715,-113.4017 45.3715,-107.4017 45.3715,-107.4017 45.3715,-84.1983 45.3715,-84.1983 45.3715,-78.1983 51.3715,-72.1983 57.3715,-72.1983 57.3715,-72.1983 186.1549,-72.1983 186.1549,-72.1983 192.1549,-72.1983 198.1549,-78.1983 198.1549,-84.1983 198.1549,-84.1983 198.1549,-107.4017 198.1549,-107.4017 198.1549,-113.4017 192.1549,-119.4017 186.1549,-119.4017"/>
<text text-anchor="middle" x="121.7632" y="-105.7" font-family="Helvetica,sans-Serif" font-size="11.00" fill="#000000">Analytic sample</text>
<text text-anchor="middle" x="121.7632" y="-92.5" font-family="Helvetica,sans-Serif" font-size="11.00" fill="#000000">(positive MEC exam weight)</text>
<text text-anchor="middle" x="121.7632" y="-79.3" font-family="Helvetica,sans-Serif" font-size="11.00" fill="#000000">N = 5,010</text>
</g>
<!-- dmstatus&#45;&gt;analytic -->
<g id="edge4" class="edge">
<title>dmstatus&#45;&gt;analytic</title>
<path fill="none" stroke="#000000" d="M121.7632,-155.6672C121.7632,-147.6365 121.7632,-138.5041 121.7632,-129.8338"/>
<polygon fill="#000000" stroke="#000000" points="125.2633,-129.5921 121.7632,-119.5921 118.2633,-129.5922 125.2633,-129.5921"/>
</g>
<!-- obese -->
<g id="node9" class="node">
<title>obese</title>
<path fill="none" stroke="#000000" d="M97.2906,-36C97.2906,-36 12.2358,-36 12.2358,-36 6.2358,-36 .2358,-30 .2358,-24 .2358,-24 .2358,-12 .2358,-12 .2358,-6 6.2358,0 12.2358,0 12.2358,0 97.2906,0 97.2906,0 103.2906,0 109.2906,-6 109.2906,-12 109.2906,-12 109.2906,-24 109.2906,-24 109.2906,-30 103.2906,-36 97.2906,-36"/>
<text text-anchor="middle" x="54.7632" y="-21.3" font-family="Helvetica,sans-Serif" font-size="11.00" fill="#000000">Obese (BMI &gt;= 30)</text>
<text text-anchor="middle" x="54.7632" y="-8.1" font-family="Helvetica,sans-Serif" font-size="11.00" fill="#000000">n = 2,090</text>
</g>
<!-- analytic&#45;&gt;obese -->
<g id="edge5" class="edge">
<title>analytic&#45;&gt;obese</title>
<path fill="none" stroke="#000000" d="M101.2969,-72.0347C93.6772,-63.1867 84.9917,-53.1012 77.2042,-44.0584"/>
<polygon fill="#000000" stroke="#000000" points="79.8189,-41.731 70.6413,-36.4375 74.5147,-46.2989 79.8189,-41.731"/>
</g>
<!-- nonobese -->
<g id="node10" class="node">
<title>nonobese</title>
<path fill="none" stroke="#000000" d="M240.2583,-36C240.2583,-36 139.2681,-36 139.2681,-36 133.2681,-36 127.2681,-30 127.2681,-24 127.2681,-24 127.2681,-12 127.2681,-12 127.2681,-6 133.2681,0 139.2681,0 139.2681,0 240.2583,0 240.2583,0 246.2583,0 252.2583,-6 252.2583,-12 252.2583,-12 252.2583,-24 252.2583,-24 252.2583,-30 246.2583,-36 240.2583,-36"/>
<text text-anchor="middle" x="189.7632" y="-21.3" font-family="Helvetica,sans-Serif" font-size="11.00" fill="#000000">Non&#45;obese (BMI &lt; 30)</text>
<text text-anchor="middle" x="189.7632" y="-8.1" font-family="Helvetica,sans-Serif" font-size="11.00" fill="#000000">n = 2,920</text>
</g>
<!-- analytic&#45;&gt;nonobese -->
<g id="edge6" class="edge">
<title>analytic&#45;&gt;nonobese</title>
<path fill="none" stroke="#000000" d="M142.5349,-72.0347C150.2684,-63.1867 159.0835,-53.1012 166.9872,-44.0584"/>
<polygon fill="#000000" stroke="#000000" points="169.7025,-46.2702 173.6481,-36.4375 164.4319,-41.6636 169.7025,-46.2702"/>
</g>
</g>
</svg>

