<?xml version="1.0" encoding="UTF-8" standalone="no"?>
<!DOCTYPE svg PUBLIC "-//W3C//DTD SVG 1.1//EN"
 "http://www.w3.org/Graphics/SVG/1.1/DTD/svg11.dtd">
<!-- Generated by graphviz version 2.40.1 (20161225.0304)
 -->
<!-- Title: flow Pages: 1 -->
<svg width="446pt" height="561pt"
 viewBox="0.00 0.00 445.81 560.80" xmlns="http://www.w3.org/2000/svg" xmlns:xlink="http://www.w3.org/1999/xlink">
<g id="graph0" class="graph" transform="scale(1 1) rotate(0) translate(4 556.8)">
<title>flow</title>
<polygon fill="#ffffff" stroke="transparent" points="-4,4 -4,-556.8 441.8115,-556.8 441.8115,4 -4,4"/>
<!-- id_db -->
<g id="node1" class="node">
<title>id_db</title>
<path fill="#ffffff" stroke="#000000" stroke-width="1.2" d="M182.8067,-552.8C182.8067,-552.8 12.0644,-552.8 12.0644,-552.8 6.0644,-552.8 .0644,-546.8 .0644,-540.8 .0644,-540.8 .0644,-480.8 .0644,-480.8 .0644,-474.8 6.0644,-468.8 12.0644,-468.8 12.0644,-468.8 182.8067,-468.8 182.8067,-468.8 188.8067,-468.8 194.8067,-474.8 194.8067,-480.8 194.8067,-480.8 194.8067,-540.8 194.8067,-540.8 194.8067,-546.8 188.8067,-552.8 182.8067,-552.8"/>
<text text-anchor="middle" x="97.4355" y="-533.9" font-family="Arial" font-size="11.00" fill="#000000">Records identified from databases</text>
<text text-anchor="middle" x="97.4355" y="-520.7" font-family="Arial" font-size="11.00" fill="#000000">(n = 312)</text>
<text text-anchor="middle" x="97.4355" y="-507.5" font-family="Arial" font-size="11.00" fill="#000000">• PubMed: 168</text>
<text text-anchor="middle" x="97.4355" y="-494.3" font-family="Arial" font-size="11.00" fill="#000000">• Embase: 109</text>
<text text-anchor="middle" x="97.4355" y="-481.1" font-family="Arial" font-size="11.00" fill="#000000">• Cochrane CENTRAL: 35</text>
</g>
<!-- dedup -->
<g id="node3" class="node">
<title>dedup</title>
<path fill="#ffffff" stroke="#000000" stroke-width="1.2" d="M181.8563,-429.0018C181.8563,-429.0018 13.0148,-429.0018 13.0148,-429.0018 7.0148,-429.0018 1.0148,-423.0018 1.0148,-417.0018 1.0148,-417.0018 1.0148,-396.1982 1.0148,-396.1982 1.0148,-390.1982 7.0148,-384.1982 13.0148,-384.1982 13.0148,-384.1982 181.8563,-384.1982 181.8563,-384.1982 187.8563,-384.1982 193.8563,-390.1982 193.8563,-396.1982 193.8563,-396.1982 193.8563,-417.0018 193.8563,-417.0018 193.8563,-423.0018 187.8563,-429.0018 181.8563,-429.0018"/>
<text text-anchor="middle" x="97.4355" y="-409.9" font-family="Arial" font-size="11.00" fill="#000000">Records after duplicates removed</text>
<text text-anchor="middle" x="97.4355" y="-396.7" font-family="Arial" font-size="11.00" fill="#000000">(n = 197)</text>
</g>
<!-- id_db&#45;&gt;dedup -->
<g id="edge1" class="edge">
<title>id_db&#45;&gt;dedup</title>
<path fill="none" stroke="#000000" d="M97.4355,-468.7182C97.4355,-468.7182 97.4355,-436.3008 97.4355,-436.3008"/>
<polygon fill="#000000" stroke="#000000" points="100.0606,-436.3007 97.4355,-428.8008 94.8106,-436.3008 100.0606,-436.3007"/>
</g>
<!-- id_other -->
<g id="node2" class="node">
<title>id_other</title>
<path fill="#ffffff" stroke="#000000" stroke-width="1.2" d="M425.6875,-539.4014C425.6875,-539.4014 239.1836,-539.4014 239.1836,-539.4014 233.1836,-539.4014 227.1836,-533.4014 227.1836,-527.4014 227.1836,-527.4014 227.1836,-494.1986 227.1836,-494.1986 227.1836,-488.1986 233.1836,-482.1986 239.1836,-482.1986 239.1836,-482.1986 425.6875,-482.1986 425.6875,-482.1986 431.6875,-482.1986 437.6875,-488.1986 437.6875,-494.1986 437.6875,-494.1986 437.6875,-527.4014 437.6875,-527.4014 437.6875,-533.4014 431.6875,-539.4014 425.6875,-539.4014"/>
<text text-anchor="middle" x="332.4356" y="-520.7" font-family="Arial" font-size="11.00" fill="#000000">Records identified from other sources</text>
<text text-anchor="middle" x="332.4356" y="-507.5" font-family="Arial" font-size="11.00" fill="#000000">(n = 6)</text>
<text text-anchor="middle" x="332.4356" y="-494.3" font-family="Arial" font-size="11.00" fill="#000000">• Citation search: 6</text>
</g>
<!-- id_other&#45;&gt;dedup -->
<g id="edge2" class="edge">
<title>id_other&#45;&gt;dedup</title>
<path fill="none" stroke="#000000" d="M278.7521,-482.1629C278.7521,-451.1336 278.7521,-406 278.7521,-406 278.7521,-406 201.1683,-406 201.1683,-406"/>
<polygon fill="#000000" stroke="#000000" points="201.1683,-403.3751 193.6683,-406 201.1683,-408.6251 201.1683,-403.3751"/>
</g>
<!-- screened -->
<g id="node4" class="node">
<title>screened</title>
<path fill="#ffffff" stroke="#000000" stroke-width="1.2" d="M178.8449,-344.6018C178.8449,-344.6018 16.0262,-344.6018 16.0262,-344.6018 10.0262,-344.6018 4.0262,-338.6018 4.0262,-332.6018 4.0262,-332.6018 4.0262,-311.7982 4.0262,-311.7982 4.0262,-305.7982 10.0262,-299.7982 16.0262,-299.7982 16.0262,-299.7982 178.8449,-299.7982 178.8449,-299.7982 184.8449,-299.7982 190.8449,-305.7982 190.8449,-311.7982 190.8449,-311.7982 190.8449,-332.6018 190.8449,-332.6018 190.8449,-338.6018 184.8449,-344.6018 178.8449,-344.6018"/>
<text text-anchor="middle" x="97.4355" y="-325.5" font-family="Arial" font-size="11.00" fill="#000000">Records screened (title/abstract)</text>
<text text-anchor="middle" x="97.4355" y="-312.3" font-family="Arial" font-size="11.00" fill="#000000">(n = 197)</text>
</g>
<!-- dedup&#45;&gt;screened -->
<g id="edge3" class="edge">
<title>dedup&#45;&gt;screened</title>
<path fill="none" stroke="#000000" d="M97.4355,-383.9823C97.4355,-383.9823 97.4355,-352.0874 97.4355,-352.0874"/>
<polygon fill="#000000" stroke="#000000" points="100.0606,-352.0874 97.4355,-344.5874 94.8106,-352.0875 100.0606,-352.0874"/>
</g>
<!-- excl_ta -->
<g id="node5" class="node">
<title>excl_ta</title>
<text text-anchor="middle" x="276.4356" y="-325.2" font-family="Arial" font-size="10.00" fill="#000000">Records excluded</text>
<text text-anchor="middle" x="276.4356" y="-313.2" font-family="Arial" font-size="10.00" fill="#000000">(n = 158)</text>
</g>
<!-- screened&#45;&gt;excl_ta -->
<g id="edge7" class="edge">
<title>screened&#45;&gt;excl_ta</title>
<path fill="none" stroke="#000000" stroke-dasharray="5,2" d="M190.8675,-322C201.5484,-322 212.1545,-322 222.0757,-322"/>
</g>
<!-- ft_sought -->
<g id="node6" class="node">
<title>ft_sought</title>
<path fill="#ffffff" stroke="#000000" stroke-width="1.2" d="M165.5685,-260.2018C165.5685,-260.2018 29.3026,-260.2018 29.3026,-260.2018 23.3026,-260.2018 17.3026,-254.2018 17.3026,-248.2018 17.3026,-248.2018 17.3026,-227.3982 17.3026,-227.3982 17.3026,-221.3982 23.3026,-215.3982 29.3026,-215.3982 29.3026,-215.3982 165.5685,-215.3982 165.5685,-215.3982 171.5685,-215.3982 177.5685,-221.3982 177.5685,-227.3982 177.5685,-227.3982 177.5685,-248.2018 177.5685,-248.2018 177.5685,-254.2018 171.5685,-260.2018 165.5685,-260.2018"/>
<text text-anchor="middle" x="97.4355" y="-241.1" font-family="Arial" font-size="11.00" fill="#000000">Reports sought for retrieval</text>
<text text-anchor="middle" x="97.4355" y="-227.9" font-family="Arial" font-size="11.00" fill="#000000">(n = 39)</text>
</g>
<!-- screened&#45;&gt;ft_sought -->
<g id="edge4" class="edge">
<title>screened&#45;&gt;ft_sought</title>
<path fill="none" stroke="#000000" d="M97.4355,-299.5823C97.4355,-299.5823 97.4355,-267.6874 97.4355,-267.6874"/>
<polygon fill="#000000" stroke="#000000" points="100.0606,-267.6874 97.4355,-260.1874 94.8106,-267.6875 100.0606,-267.6874"/>
</g>
<!-- ft_notret -->
<g id="node7" class="node">
<title>ft_notret</title>
<text text-anchor="middle" x="270.4356" y="-240.8" font-family="Arial" font-size="10.00" fill="#000000">Reports not retrieved</text>
<text text-anchor="middle" x="270.4356" y="-228.8" font-family="Arial" font-size="10.00" fill="#000000">(n = 4)</text>
</g>
<!-- ft_sought&#45;&gt;ft_notret -->
<g id="edge8" class="edge">
<title>ft_sought&#45;&gt;ft_notret</title>
<path fill="none" stroke="#000000" stroke-dasharray="5,2" d="M177.6051,-237C188.3882,-237 199.3032,-237 209.675,-237"/>
</g>
<!-- ft_assessed -->
<g id="node8" class="node">
<title>ft_assessed</title>
<path fill="#ffffff" stroke="#000000" stroke-width="1.2" d="M173.4516,-159.0018C173.4516,-159.0018 21.4195,-159.0018 21.4195,-159.0018 15.4195,-159.0018 9.4195,-153.0018 9.4195,-147.0018 9.4195,-147.0018 9.4195,-126.1982 9.4195,-126.1982 9.4195,-120.1982 15.4195,-114.1982 21.4195,-114.1982 21.4195,-114.1982 173.4516,-114.1982 173.4516,-114.1982 179.4516,-114.1982 185.4516,-120.1982 185.4516,-126.1982 185.4516,-126.1982 185.4516,-147.0018 185.4516,-147.0018 185.4516,-153.0018 179.4516,-159.0018 173.4516,-159.0018"/>
<text text-anchor="middle" x="97.4355" y="-139.9" font-family="Arial" font-size="11.00" fill="#000000">Reports assessed for eligibility</text>
<text text-anchor="middle" x="97.4355" y="-126.7" font-family="Arial" font-size="11.00" fill="#000000">(n = 35)</text>
</g>
<!-- ft_sought&#45;&gt;ft_assessed -->
<g id="edge5" class="edge">
<title>ft_sought&#45;&gt;ft_assessed</title>
<path fill="none" stroke="#000000" d="M97.4355,-215.5912C97.4355,-215.5912 97.4355,-166.6067 97.4355,-166.6067"/>
<polygon fill="#000000" stroke="#000000" points="100.0606,-166.6066 97.4355,-159.1067 94.8106,-166.6067 100.0606,-166.6066"/>
</g>
<!-- ft_excl -->
<g id="node9" class="node">
<title>ft_excl</title>
<text text-anchor="middle" x="303.4356" y="-157.6" font-family="Arial" font-size="10.00" fill="#000000">Reports excluded (n = 22):</text>
<text text-anchor="middle" x="303.4356" y="-145.6" font-family="Arial" font-size="10.00" fill="#000000">• Not randomized: 9</text>
<text text-anchor="middle" x="303.4356" y="-133.6" font-family="Arial" font-size="10.00" fill="#000000">• No control arm: 6</text>
<text text-anchor="middle" x="303.4356" y="-121.6" font-family="Arial" font-size="10.00" fill="#000000">• Outcome not TB incidence: 5</text>
<text text-anchor="middle" x="303.4356" y="-109.6" font-family="Arial" font-size="10.00" fill="#000000">• Duplicate cohort: 2</text>
</g>
<!-- ft_assessed&#45;&gt;ft_excl -->
<g id="edge9" class="edge">
<title>ft_assessed&#45;&gt;ft_excl</title>
<path fill="none" stroke="#000000" stroke-dasharray="5,2" d="M185.6946,-136C196.3964,-136 207.3151,-136 217.9755,-136"/>
</g>
<!-- included -->
<g id="node10" class="node">
<title>included</title>
<path fill="#ffffff" stroke="#000000" stroke-width="1.8" d="M171.0673,-57.4014C171.0673,-57.4014 23.8038,-57.4014 23.8038,-57.4014 17.8038,-57.4014 11.8038,-51.4014 11.8038,-45.4014 11.8038,-45.4014 11.8038,-12.1986 11.8038,-12.1986 11.8038,-6.1986 17.8038,-.1986 23.8038,-.1986 23.8038,-.1986 171.0673,-.1986 171.0673,-.1986 177.0673,-.1986 183.0673,-6.1986 183.0673,-12.1986 183.0673,-12.1986 183.0673,-45.4014 183.0673,-45.4014 183.0673,-51.4014 177.0673,-57.4014 171.0673,-57.4014"/>
<text text-anchor="middle" x="97.4355" y="-38.7" font-family="Arial" font-size="11.00" fill="#000000">Randomized trials included in</text>
<text text-anchor="middle" x="97.4355" y="-25.5" font-family="Arial" font-size="11.00" fill="#000000">meta&#45;analysis (n = 13)</text>
<text text-anchor="middle" x="97.4355" y="-12.3" font-family="Arial" font-size="11.00" fill="#000000">Participants (n = 357,347)</text>
</g>
<!-- ft_assessed&#45;&gt;included -->
<g id="edge6" class="edge">
<title>ft_assessed&#45;&gt;included</title>
<path fill="none" stroke="#000000" d="M97.4355,-114.2638C97.4355,-114.2638 97.4355,-65.1685 97.4355,-65.1685"/>
<polygon fill="#000000" stroke="#000000" points="100.0606,-65.1685 97.4355,-57.6685 94.8106,-65.1685 100.0606,-65.1685"/>
</g>
</g>
</svg>

