<svg xmlns="http://www.w3.org/2000/svg" xmlns:xlink="http://www.w3.org/1999/xlink" width="446pt" height="748" viewBox="0 0 445.81 560.8"><g id="graph0" class="graph" transform="scale(1 1) rotate(0) translate(4 556.8)"><title>flow</title><polygon fill="#fff" stroke="transparent" points="-4 4 -4 -556.8 441.812 -556.8 441.812 4 -4 4"/><g id="node1" class="node"><title>id_db</title><path fill="#fff" stroke="#000" stroke-width="1.2" d="M182.8067,-552.8C182.8067,-552.8 12.0644,-552.8 12.0644,-552.8 6.0644,-552.8 .0644,-546.8 .0644,-540.8 .0644,-540.8 .0644,-480.8 .0644,-480.8 .0644,-474.8 6.0644,-468.8 12.0644,-468.8 12.0644,-468.8 182.8067,-468.8 182.8067,-468.8 188.8067,-468.8 194.8067,-474.8 194.8067,-480.8 194.8067,-480.8 194.8067,-540.8 194.8067,-540.8 194.8067,-546.8 188.8067,-552.8 182.8067,-552.8"/><text x="97.436" y="-533.9" fill="#000" font-family="Arial" font-size="11" text-anchor="middle">Records identified from databases</text><text x="97.436" y="-520.7" fill="#000" font-family="Arial" font-size="11" text-anchor="middle">(n = 312)</text><text x="97.436" y="-507.5" fill="#000" font-family="Arial" font-size="11" text-anchor="middle">• PubMed: 168</text><text x="97.436" y="-494.3" fill="#000" font-family="Arial" font-size="11" text-anchor="middle">• Embase: 109</text><text x="97.436" y="-481.1" fill="#000" font-family="Arial" font-size="11" text-anchor="middle">• Cochrane CENTRAL: 35</text></g><g id="node3" class="node"><title>dedup</title><path fill="#fff" stroke="#000" stroke-width="1.2" d="M181.8563,-429.0018C181.8563,-429.0018 13.0148,-429.0018 13.0148,-429.0018 7.0148,-429.0018 1.0148,-423.0018 1.0148,-417.0018 1.0148,-417.0018 1.0148,-396.1982 1.0148,-396.1982 1.0148,-390.1982 7.0148,-384.1982 13.0148,-384.1982 13.0148,-384.1982 181.8563,-384.1982 181.8563,-384.1982 187.8563,-384.1982 193.8563,-390.1982 193.8563,-396.1982 193.8563,-396.1982 193.8563,-417.0018 193.8563,-417.0018 193.8563,-423.0018 187.8563,-429.0018 181.8563,-429.0018"/><text x="97.436" y="-409.9" fill="#000" font-family="Arial" font-size="11" text-anchor="middle">Records after duplicates removed</text><text x="97.436" y="-396.7" fill="#000" font-family="Arial" font-size="11" text-anchor="middle">(n = 197)</text></g><g id="edge1" class="edge"><title>id_db-&gt;dedup</title><path fill="none" stroke="#000" d="M97.4355,-468.7182C97.4355,-468.7182 97.4355,-436.3008 97.4355,-436.3008"/><polygon fill="#000" stroke="#000" points="100.061 -436.301 97.436 -428.801 94.811 -436.301 100.061 -436.301"/></g><g id="node2" class="node"><title>id_other</title><path fill="#fff" stroke="#000" stroke-width="1.2" d="M425.6875,-539.4014C425.6875,-539.4014 239.1836,-539.4014 239.1836,-539.4014 233.1836,-539.4014 227.1836,-533.4014 227.1836,-527.4014 227.1836,-527.4014 227.1836,-494.1986 227.1836,-494.1986 227.1836,-488.1986 233.1836,-482.1986 239.1836,-482.1986 239.1836,-482.1986 425.6875,-482.1986 425.6875,-482.1986 431.6875,-482.1986 437.6875,-488.1986 437.6875,-494.1986 437.6875,-494.1986 437.6875,-527.4014 437.6875,-527.4014 437.6875,-533.4014 431.6875,-539.4014 425.6875,-539.4014"/><text x="332.436" y="-520.7" fill="#000" font-family="Arial" font-size="11" text-anchor="middle">Records identified from other sources</text><text x="332.436" y="-507.5" fill="#000" font-family="Arial" font-size="11" text-anchor="middle">(n = 6)</text><text x="332.436" y="-494.3" fill="#000" font-family="Arial" font-size="11" text-anchor="middle">• Citation search: 6</text></g><g id="edge2" class="edge"><title>id_other-&gt;dedup</title><path fill="none" stroke="#000" d="M278.7521,-482.1629C278.7521,-451.1336 278.7521,-406 278.7521,-406 278.7521,-406 201.1683,-406 201.1683,-406"/><polygon fill="#000" stroke="#000" points="201.168 -403.375 193.668 -406 201.168 -408.625 201.168 -403.375"/></g><g id="node4" class="node"><title>screened</title><path fill="#fff" stroke="#000" stroke-width="1.2" d="M178.8449,-344.6018C178.8449,-344.6018 16.0262,-344.6018 16.0262,-344.6018 10.0262,-344.6018 4.0262,-338.6018 4.0262,-332.6018 4.0262,-332.6018 4.0262,-311.7982 4.0262,-311.7982 4.0262,-305.7982 10.0262,-299.7982 16.0262,-299.7982 16.0262,-299.7982 178.8449,-299.7982 178.8449,-299.7982 184.8449,-299.7982 190.8449,-305.7982 190.8449,-311.7982 190.8449,-311.7982 190.8449,-332.6018 190.8449,-332.6018 190.8449,-338.6018 184.8449,-344.6018 178.8449,-344.6018"/><text x="97.436" y="-325.5" fill="#000" font-family="Arial" font-size="11" text-anchor="middle">Records screened (title/abstract)</text><text x="97.436" y="-312.3" fill="#000" font-family="Arial" font-size="11" text-anchor="middle">(n = 197)</text></g><g id="edge3" class="edge"><title>dedup-&gt;screened</title><path fill="none" stroke="#000" d="M97.4355,-383.9823C97.4355,-383.9823 97.4355,-352.0874 97.4355,-352.0874"/><polygon fill="#000" stroke="#000" points="100.061 -352.087 97.436 -344.587 94.811 -352.087 100.061 -352.087"/></g><g id="node5" class="node"><title>excl_ta</title><text x="276.436" y="-325.2" fill="#000" font-family="Arial" font-size="10" text-anchor="middle">Records excluded</text><text x="276.436" y="-313.2" fill="#000" font-family="Arial" font-size="10" text-anchor="middle">(n = 158)</text></g><g id="edge7" class="edge"><title>screened-&gt;excl_ta</title><path fill="none" stroke="#000" stroke-dasharray="5 2" d="M190.8675,-322C201.5484,-322 212.1545,-322 222.0757,-322"/></g><g id="node6" class="node"><title>ft_sought</title><path fill="#fff" stroke="#000" stroke-width="1.2" d="M165.5685,-260.2018C165.5685,-260.2018 29.3026,-260.2018 29.3026,-260.2018 23.3026,-260.2018 17.3026,-254.2018 17.3026,-248.2018 17.3026,-248.2018 17.3026,-227.3982 17.3026,-227.3982 17.3026,-221.3982 23.3026,-215.3982 29.3026,-215.3982 29.3026,-215.3982 165.5685,-215.3982 165.5685,-215.3982 171.5685,-215.3982 177.5685,-221.3982 177.5685,-227.3982 177.5685,-227.3982 177.5685,-248.2018 177.5685,-248.2018 177.5685,-254.2018 171.5685,-260.2018 165.5685,-260.2018"/><text x="97.436" y="-241.1" fill="#000" font-family="Arial" font-size="11" text-anchor="middle">Reports sought for retrieval</text><text x="97.436" y="-227.9" fill="#000" font-family="Arial" font-size="11" text-anchor="middle">(n = 39)</text></g><g id="edge4" class="edge"><title>screened-&gt;ft_sought</title><path fill="none" stroke="#000" d="M97.4355,-299.5823C97.4355,-299.5823 97.4355,-267.6874 97.4355,-267.6874"/><polygon fill="#000" stroke="#000" points="100.061 -267.687 97.436 -260.187 94.811 -267.688 100.061 -267.687"/></g><g id="node7" class="node"><title>ft_notret</title><text x="270.436" y="-240.8" fill="#000" font-family="Arial" font-size="10" text-anchor="middle">Reports not retrieved</text><text x="270.436" y="-228.8" fill="#000" font-family="Arial" font-size="10" text-anchor="middle">(n = 4)</text></g><g id="edge8" class="edge"><title>ft_sought-&gt;ft_notret</title><path fill="none" stroke="#000" stroke-dasharray="5 2" d="M177.6051,-237C188.3882,-237 199.3032,-237 209.675,-237"/></g><g id="node8" class="node"><title>ft_assessed</title><path fill="#fff" stroke="#000" stroke-width="1.2" d="M173.4516,-159.0018C173.4516,-159.0018 21.4195,-159.0018 21.4195,-159.0018 15.4195,-159.0018 9.4195,-153.0018 9.4195,-147.0018 9.4195,-147.0018 9.4195,-126.1982 9.4195,-126.1982 9.4195,-120.1982 15.4195,-114.1982 21.4195,-114.1982 21.4195,-114.1982 173.4516,-114.1982 173.4516,-114.1982 179.4516,-114.1982 185.4516,-120.1982 185.4516,-126.1982 185.4516,-126.1982 185.4516,-147.0018 185.4516,-147.0018 185.4516,-153.0018 179.4516,-159.0018 173.4516,-159.0018"/><text x="97.436" y="-139.9" fill="#000" font-family="Arial" font-size="11" text-anchor="middle">Reports assessed for eligibility</text><text x="97.436" y="-126.7" fill="#000" font-family="Arial" font-size="11" text-anchor="middle">(n = 35)</text></g><g id="edge5" class="edge"><title>ft_sought-&gt;ft_assessed</title><path fill="none" stroke="#000" d="M97.4355,-215.5912C97.4355,-215.5912 97.4355,-166.6067 97.4355,-166.6067"/><polygon fill="#000" stroke="#000" points="100.061 -166.607 97.436 -159.107 94.811 -166.607 100.061 -166.607"/></g><g id="node9" class="node"><title>ft_excl</title><text x="303.436" y="-157.6" fill="#000" font-family="Arial" font-size="10" text-anchor="middle">Reports excluded (n = 22):</text><text x="303.436" y="-145.6" fill="#000" font-family="Arial" font-size="10" text-anchor="middle">• Not randomized: 9</text><text x="303.436" y="-133.6" fill="#000" font-family="Arial" font-size="10" text-anchor="middle">• No control arm: 6</text><text x="303.436" y="-121.6" fill="#000" font-family="Arial" font-size="10" text-anchor="middle">• Outcome not TB incidence: 5</text><text x="303.436" y="-109.6" fill="#000" font-family="Arial" font-size="10" text-anchor="middle">• Duplicate cohort: 2</text></g><g id="edge9" class="edge"><title>ft_assessed-&gt;ft_excl</title><path fill="none" stroke="#000" stroke-dasharray="5 2" d="M185.6946,-136C196.3964,-136 207.3151,-136 217.9755,-136"/></g><g id="node10" class="node"><title>included</title><path fill="#fff" stroke="#000" stroke-width="1.8" d="M171.0673,-57.4014C171.0673,-57.4014 23.8038,-57.4014 23.8038,-57.4014 17.8038,-57.4014 11.8038,-51.4014 11.8038,-45.4014 11.8038,-45.4014 11.8038,-12.1986 11.8038,-12.1986 11.8038,-6.1986 17.8038,-.1986 23.8038,-.1986 23.8038,-.1986 171.0673,-.1986 171.0673,-.1986 177.0673,-.1986 183.0673,-6.1986 183.0673,-12.1986 183.0673,-12.1986 183.0673,-45.4014 183.0673,-45.4014 183.0673,-51.4014 177.0673,-57.4014 171.0673,-57.4014"/><text x="97.436" y="-38.7" fill="#000" font-family="Arial" font-size="11" text-anchor="middle">Randomized trials included in</text><text x="97.436" y="-25.5" fill="#000" font-family="Arial" font-size="11" text-anchor="middle">meta-analysis (n = 13)</text><text x="97.436" y="-12.3" fill="#000" font-family="Arial" font-size="11" text-anchor="middle">Participants (n = 357,347)</text></g><g id="edge6" class="edge"><title>ft_assessed-&gt;included</title><path fill="none" stroke="#000" d="M97.4355,-114.2638C97.4355,-114.2638 97.4355,-65.1685 97.4355,-65.1685"/><polygon fill="#000" stroke="#000" points="100.061 -65.168 97.436 -57.669 94.811 -65.168 100.061 -65.168"/></g></g></svg>